<svg width="130" height="40" viewBox="0 0 130 40" fill="none" xmlns="http://www.w3.org/2000/svg">
<mask id="mask0_0_1" style="mask-type:luminance" maskUnits="userSpaceOnUse" x="0" y="0" width="40" height="40">
<path d="M40 0H0V40H40V0Z" fill="white"/>
</mask>
<g mask="url(#mask0_0_1)">
<path d="M18.9523 11.0726C18.5586 7.69873 18.1429 4.13644 18.1429 0H21.8571C21.8571 4.08998 21.4434 7.64774 21.0502 11.0254C20.7299 13.778 20.4235 16.411 20.3666 19.115C22.2316 17.1697 23.863 15.107 25.572 12.9463C27.6791 10.2823 29.9043 7.46945 32.829 4.54464L35.4554 7.17104C32.5633 10.0631 29.7547 12.2861 27.0884 14.3966L27.0859 14.3985C24.9141 16.1178 22.8365 17.7624 20.885 19.6334C23.579 19.5765 26.1911 19.2717 28.9272 18.9524C32.3011 18.5586 35.8636 18.1429 40 18.1429V21.8571C35.9102 21.8571 32.3524 21.4432 28.9749 21.0502L28.9724 21.05C26.2204 20.7298 23.5882 20.4236 20.885 20.3666C22.829 22.2302 24.8906 23.8609 27.0499 25.5687L27.0533 25.5716C29.7174 27.6789 32.5304 29.9039 35.4554 32.829L32.829 35.4554C29.9369 32.5634 27.714 29.755 25.6038 27.0889L25.5988 27.082L25.5946 27.0765C23.8775 24.9081 22.2349 22.8338 20.3666 20.885C20.4235 23.589 20.7299 26.222 21.0502 28.9746C21.4434 32.3523 21.8571 35.91 21.8571 40H18.1429C18.1429 35.8636 18.5586 32.3013 18.9523 28.9274L18.9531 28.9219C19.272 26.1877 19.5765 23.5772 19.6334 20.885C17.7651 22.8338 16.1225 24.9081 14.4054 27.0765L14.4012 27.082L14.3962 27.0889C12.286 29.755 10.0631 32.5634 7.17104 35.4554L4.54464 32.829C7.46959 29.9039 10.2826 27.6789 12.9467 25.5716L12.9501 25.5687C15.1094 23.8609 17.171 22.2302 19.115 20.3666C16.411 20.4237 13.7779 20.73 11.0251 21.0502C7.6476 21.4432 4.08984 21.8571 0 21.8571V18.1429C4.13644 18.1429 7.69894 18.5586 11.0728 18.9524C13.8089 19.2717 16.421 19.5765 19.115 19.6334C17.1627 17.7617 15.0843 16.1166 12.9116 14.3966C10.2453 12.2861 7.43666 10.0631 4.54464 7.17104L7.17104 4.54464C10.0957 7.46945 12.3209 10.2823 14.428 12.9463C16.137 15.1069 17.7684 17.1696 19.6334 19.1148C19.5765 16.4227 19.272 13.8123 18.9531 11.0781L18.9523 11.0726Z" fill="#E84C34"/>
</g>
<path d="M61.0714 25.4H66.3274V29H56.3674V12.08H61.0714V25.4ZM76.2685 29.168C74.6845 29.168 73.2285 28.8 71.9005 28.064C70.5725 27.312 69.5165 26.28 68.7325 24.968C67.9645 23.64 67.5805 22.144 67.5805 20.48C67.5805 18.816 67.9645 17.328 68.7325 16.016C69.5165 14.688 70.5725 13.656 71.9005 12.92C73.2285 12.184 74.6845 11.816 76.2685 11.816C77.8685 11.816 79.3245 12.184 80.6365 12.92C81.9645 13.656 83.0125 14.688 83.7805 16.016C84.5485 17.328 84.9325 18.816 84.9325 20.48C84.9325 22.144 84.5485 23.64 83.7805 24.968C83.0125 26.28 81.9645 27.312 80.6365 28.064C79.3085 28.8 77.8525 29.168 76.2685 29.168ZM76.2685 24.8C77.4685 24.8 78.4125 24.408 79.1005 23.624C79.8045 22.84 80.1565 21.792 80.1565 20.48C80.1565 19.136 79.8045 18.08 79.1005 17.312C78.4125 16.528 77.4685 16.136 76.2685 16.136C75.0525 16.136 74.1005 16.528 73.4125 17.312C72.7245 18.08 72.3805 19.136 72.3805 20.48C72.3805 21.808 72.7245 22.864 73.4125 23.648C74.1005 24.416 75.0525 24.8 76.2685 24.8ZM97.8471 17.648C97.5751 17.2 97.1991 16.856 96.7191 16.616C96.2551 16.376 95.7031 16.256 95.0631 16.256C93.8791 16.256 92.9431 16.64 92.2551 17.408C91.5831 18.176 91.2471 19.208 91.2471 20.504C91.2471 21.96 91.6071 23.072 92.3271 23.84C93.0631 24.592 94.1271 24.968 95.5191 24.968C97.1671 24.968 98.3431 24.224 99.0471 22.736H94.3191V19.352H103.103V23.912C102.735 24.808 102.191 25.648 101.471 26.432C100.767 27.216 99.8711 27.864 98.7831 28.376C97.6951 28.872 96.4551 29.12 95.0631 29.12C93.3671 29.12 91.8631 28.76 90.5511 28.04C89.2551 27.304 88.2471 26.288 87.5271 24.992C86.8231 23.68 86.4711 22.184 86.4711 20.504C86.4711 18.84 86.8231 17.36 87.5271 16.064C88.2471 14.752 89.2551 13.736 90.5511 13.016C91.8471 12.28 93.3431 11.912 95.0391 11.912C97.1671 11.912 98.9271 12.424 100.319 13.448C101.711 14.472 102.575 15.872 102.911 17.648H97.8471ZM113.323 29.168C111.739 29.168 110.283 28.8 108.955 28.064C107.627 27.312 106.571 26.28 105.787 24.968C105.019 23.64 104.635 22.144 104.635 20.48C104.635 18.816 105.019 17.328 105.787 16.016C106.571 14.688 107.627 13.656 108.955 12.92C110.283 12.184 111.739 11.816 113.323 11.816C114.923 11.816 116.379 12.184 117.691 12.92C119.019 13.656 120.067 14.688 120.835 16.016C121.603 17.328 121.987 18.816 121.987 20.48C121.987 22.144 121.603 23.64 120.835 24.968C120.067 26.28 119.019 27.312 117.691 28.064C116.363 28.8 114.907 29.168 113.323 29.168ZM113.323 24.8C114.523 24.8 115.467 24.408 116.155 23.624C116.859 22.84 117.211 21.792 117.211 20.48C117.211 19.136 116.859 18.08 116.155 17.312C115.467 16.528 114.523 16.136 113.323 16.136C112.107 16.136 111.155 16.528 110.467 17.312C109.779 18.08 109.435 19.136 109.435 20.48C109.435 21.808 109.779 22.864 110.467 23.648C111.155 24.416 112.107 24.8 113.323 24.8ZM126.382 29.192C125.55 29.192 124.878 28.968 124.366 28.52C123.87 28.056 123.622 27.472 123.622 26.768C123.622 26.064 123.87 25.48 124.366 25.016C124.878 24.552 125.55 24.32 126.382 24.32C127.198 24.32 127.854 24.552 128.35 25.016C128.862 25.48 129.118 26.064 129.118 26.768C129.118 27.456 128.862 28.032 128.35 28.496C127.854 28.96 127.198 29.192 126.382 29.192Z" fill="#F2F1EF"/>
</svg>
